<svg width="29" height="28" viewBox="0 0 29 28" fill="none" xmlns="http://www.w3.org/2000/svg">
<path d="M14.5 19.7483C13.8591 19.7483 13.2444 19.5035 12.7912 19.0678C12.3379 18.6321 12.0833 18.0411 12.0833 17.4249C12.0833 16.1355 13.1587 15.1016 14.5 15.1016C15.1409 15.1016 15.7556 15.3464 16.2088 15.7821C16.6621 16.2178 16.9167 16.8088 16.9167 17.4249C16.9167 18.0411 16.6621 18.6321 16.2088 19.0678C15.7556 19.5035 15.1409 19.7483 14.5 19.7483ZM21.75 23.2333V11.6166H7.25V23.2333H21.75ZM21.75 9.2933C22.3909 9.2933 23.0056 9.53808 23.4588 9.97379C23.9121 10.4095 24.1667 11.0004 24.1667 11.6166V23.2333C24.1667 23.8494 23.9121 24.4404 23.4588 24.8761C23.0056 25.3118 22.3909 25.5566 21.75 25.5566H7.25C6.60906 25.5566 5.99437 25.3118 5.54116 24.8761C5.08794 24.4404 4.83333 23.8494 4.83333 23.2333V11.6166C4.83333 10.3272 5.90875 9.2933 7.25 9.2933H8.45833V6.96998C8.45833 5.42952 9.09486 3.95215 10.2279 2.86288C11.3609 1.77361 12.8976 1.16166 14.5 1.16166C15.2934 1.16166 16.079 1.3119 16.812 1.60379C17.5451 1.89569 18.2111 2.32353 18.7721 2.86288C19.3331 3.40223 19.7782 4.04253 20.0818 4.74723C20.3854 5.45193 20.5417 6.20722 20.5417 6.96998V9.2933H21.75ZM14.5 3.48499C13.5386 3.48499 12.6166 3.85216 11.9367 4.50572C11.2569 5.15928 10.875 6.0457 10.875 6.96998V9.2933H18.125V6.96998C18.125 6.0457 17.7431 5.15928 17.0633 4.50572C16.3834 3.85216 15.4614 3.48499 14.5 3.48499Z" fill="#CCCCCC"/>
</svg>
