<svg width="56" height="40" viewBox="0 0 56 40" fill="none" xmlns="http://www.w3.org/2000/svg">
<path d="M53.5611 9.4668C54.0894 8.94007 54.4853 8.33363 54.7262 7.68209C54.9672 7.03055 55.0485 6.34667 54.9655 5.66951C54.8824 4.99234 54.6367 4.33514 54.2424 3.73544C53.848 3.13574 53.3127 2.60528 52.6671 2.17434C52.0214 1.7434 51.278 1.42043 50.4794 1.22386C49.6807 1.02729 48.8424 0.960978 48.0123 1.02871C47.1822 1.09644 46.3767 1.29688 45.6415 1.61859C44.9064 1.94031 44.2562 2.37699 43.7279 2.90371L18.9988 27.56L11.1665 22.7666C10.4992 22.3582 9.73977 22.0612 8.93168 21.8923C8.1236 21.7234 7.28265 21.686 6.45685 21.7822C5.63105 21.8785 4.83657 22.1065 4.11878 22.4532C3.40098 22.7999 2.77393 23.2586 2.27342 23.803C1.77291 24.3474 1.40875 24.9669 1.20172 25.6261C0.994689 26.2853 0.948852 26.9714 1.06682 27.6451C1.30508 29.0056 2.19609 30.2332 3.54386 31.0579L13.8122 37.3411C15.7781 38.5441 18.2377 39.081 20.6773 38.8396C23.1169 38.5982 25.3478 37.5972 26.9041 36.0456L53.5611 9.4668Z" stroke="white" stroke-width="2" stroke-linecap="round"/>
</svg>
