<svg width="29" height="30" viewBox="0 0 29 30" fill="none" xmlns="http://www.w3.org/2000/svg">
<path fill-rule="evenodd" clip-rule="evenodd" d="M14.3544 5C13.0854 5 11.8684 5.52678 10.971 6.46446C10.0737 7.40215 9.56961 8.67392 9.56961 10C9.56961 11.3261 10.0737 12.5979 10.971 13.5355C11.8684 14.4732 13.0854 15 14.3544 15C15.6234 15 16.8405 14.4732 17.7378 13.5355C18.6351 12.5979 19.1392 11.3261 19.1392 10C19.1392 8.67392 18.6351 7.40215 17.7378 6.46446C16.8405 5.52678 15.6234 5 14.3544 5ZM11.962 16.25C10.693 16.25 9.47597 16.7768 8.57864 17.7145C7.68132 18.6521 7.17721 19.9239 7.17721 21.25V22.5C7.17721 23.875 8.25379 25 9.56961 25H19.1392C19.7737 25 20.3822 24.7366 20.8309 24.2678C21.2796 23.7989 21.5316 23.163 21.5316 22.5V21.25C21.5316 19.9239 21.0275 18.6521 20.1302 17.7145C19.2329 16.7768 18.0158 16.25 16.7468 16.25H11.962Z" fill="#CCCCCC"/>
</svg>
