<svg width="49" height="34" viewBox="0 0 49 34" fill="none" xmlns="http://www.w3.org/2000/svg">
<path d="M25.2253 34C23.2192 34 21.3308 33.3358 19.9133 32.1287C18.4957 30.9217 17.7093 29.3166 17.7118 27.6092C17.7118 26.0211 18.3905 25.4847 19.6253 23.3559H7.5135C3.37106 23.3559 0 20.4883 0 16.9694C0 13.4483 3.37106 10.5829 7.5135 10.5829H19.6253C18.388 8.45409 17.7118 7.91124 17.7118 6.32314C17.7095 5.48401 17.9031 4.65283 18.2814 3.87776C18.6597 3.10269 19.2152 2.39915 19.9158 1.8079C22.7509 -0.601925 27.6998 -0.604053 30.5374 1.81003L48.3719 16.9694L30.5374 32.1287C29.8416 32.7239 29.0139 33.1958 28.102 33.517C27.1902 33.8382 26.2124 34.0024 25.2253 34ZM7.5135 14.8406C6.86864 14.8651 6.25976 15.1001 5.81363 15.4966C5.36751 15.8932 5.11853 16.4207 5.11853 16.9694C5.11853 17.5181 5.36751 18.0456 5.81363 18.4421C6.25976 18.8387 6.86864 19.0737 7.5135 19.0982H31.702L23.4546 26.1084C23.2212 26.3051 23.0362 26.5393 22.9102 26.7973C22.7842 27.0553 22.7198 27.332 22.7208 27.6114C22.7208 28.184 22.9813 28.7162 23.4546 29.1186C23.9314 29.5061 24.5657 29.7224 25.2253 29.7224C25.885 29.7224 26.5192 29.5061 26.996 29.1186L41.2892 16.9694L26.996 4.82019C26.5192 4.43268 25.885 4.21641 25.2253 4.21641C24.5657 4.21641 23.9314 4.43268 23.4546 4.82019C23.2212 5.01687 23.0362 5.25102 22.9102 5.50904C22.7842 5.76705 22.7198 6.04379 22.7208 6.32314C22.7208 6.89366 22.9813 7.428 23.4546 7.83035L31.702 14.8406H7.5135Z" fill="white"/>
</svg>
