<svg width="24" height="24" viewBox="0 0 24 24" fill="none" xmlns="http://www.w3.org/2000/svg">
<g clip-path="url(#clip0_2_140)">
<path d="M12 3C11.2915 2.99894 10.6055 3.24866 10.0635 3.70492C9.52152 4.16118 9.15849 4.79454 9.03871 5.49282C8.91894 6.1911 9.05016 6.90924 9.40913 7.52004C9.76811 8.13085 10.3317 8.5949 11 8.83V11H8C7.20435 11 6.44129 11.3161 5.87868 11.8787C5.31607 12.4413 5 13.2043 5 14V15.17C4.33251 15.4059 3.76991 15.8702 3.41164 16.4808C3.05337 17.0914 2.92251 17.809 3.04219 18.5068C3.16186 19.2046 3.52437 19.8375 4.06563 20.2939C4.60689 20.7502 5.29205 21.0005 6 21.0005C6.70795 21.0005 7.39311 20.7502 7.93437 20.2939C8.47563 19.8375 8.83814 19.2046 8.95781 18.5068C9.07749 17.809 8.94662 17.0914 8.58836 16.4808C8.23009 15.8702 7.66749 15.4059 7 15.17V14C7 13.7348 7.10536 13.4804 7.29289 13.2929C7.48043 13.1054 7.73478 13 8 13H16C16.2652 13 16.5196 13.1054 16.7071 13.2929C16.8946 13.4804 17 13.7348 17 14V15.17C16.3325 15.4059 15.7699 15.8702 15.4116 16.4808C15.0534 17.0914 14.9225 17.809 15.0422 18.5068C15.1619 19.2046 15.5244 19.8375 16.0656 20.2939C16.6069 20.7502 17.292 21.0005 18 21.0005C18.708 21.0005 19.3931 20.7502 19.9344 20.2939C20.4756 19.8375 20.8381 19.2046 20.9578 18.5068C21.0775 17.809 20.9466 17.0914 20.5884 16.4808C20.2301 15.8702 19.6675 15.4059 19 15.17V14C19 13.2043 18.6839 12.4413 18.1213 11.8787C17.5587 11.3161 16.7956 11 16 11H13V8.83C13.6671 8.59385 14.2294 8.12952 14.5874 7.51903C14.9454 6.90854 15.0761 6.19118 14.9564 5.49366C14.8368 4.79613 14.4745 4.16334 13.9335 3.70704C13.3925 3.25075 12.7077 3.00032 12 3Z" fill="#CCCCCC"/>
</g>
<defs>
<clipPath id="clip0_2_140">
<rect width="24" height="24" fill="white"/>
</clipPath>
</defs>
</svg>
