<svg width="23" height="25" viewBox="0 0 23 25" fill="none" xmlns="http://www.w3.org/2000/svg">
<g clip-path="url(#clip0_2_135)">
<path d="M9.34807 7.15859C9.34807 6.56484 9.79082 6.08438 10.3364 6.08438H12.7118C15.9829 6.08438 18.6616 8.92578 18.6616 12.4672C18.6616 16.007 15.9829 18.8492 12.7118 18.8492H10.3356C9.78939 18.8492 9.34736 18.368 9.34736 17.775L9.34807 7.15859ZM11.3246 16.6031C11.3246 16.657 11.3649 16.7008 11.4145 16.7008H12.7118C14.9213 16.7008 16.6851 14.7891 16.6851 12.4664C16.6851 10.1445 14.9213 8.23203 12.7118 8.23203H11.4138C11.4019 8.23203 11.3902 8.23458 11.3792 8.23954C11.3683 8.2445 11.3583 8.25176 11.35 8.26091C11.3416 8.27006 11.335 8.28092 11.3306 8.29286C11.3261 8.3048 11.3238 8.31758 11.3239 8.33047L11.3246 16.6031ZM6.74548 6.16406C6.87529 6.16375 7.00388 6.19127 7.1239 6.24503C7.24392 6.29878 7.35301 6.37773 7.44493 6.47736C7.53686 6.57699 7.60981 6.69533 7.65961 6.82563C7.70942 6.95593 7.73511 7.09562 7.7352 7.23672L7.74526 17.6938C7.74555 17.9787 7.6417 18.252 7.45656 18.4537C7.27143 18.6554 7.02017 18.7688 6.75806 18.7691C6.49595 18.7695 6.24446 18.6566 6.05892 18.4553C5.87338 18.2541 5.76899 17.981 5.7687 17.6961L5.75864 7.23906C5.75845 7.09799 5.78382 6.95827 5.83332 6.82786C5.88281 6.69745 5.95544 6.57891 6.04708 6.47902C6.13872 6.37912 6.24756 6.29982 6.36739 6.24565C6.48722 6.19148 6.6157 6.16427 6.74548 6.16406Z" fill="#CCCCCC"/>
<path d="M4.3125 0.78125C3.84056 0.78125 3.37325 0.882288 2.93723 1.0786C2.50122 1.2749 2.10505 1.56264 1.77134 1.92536C1.09738 2.65793 0.71875 3.6515 0.71875 4.6875V20.3125C0.71875 21.3485 1.09738 22.3421 1.77134 23.0746C2.10505 23.4374 2.50122 23.7251 2.93723 23.9214C3.37325 24.1177 3.84056 24.2188 4.3125 24.2188H18.6875C19.6406 24.2188 20.5547 23.8072 21.2287 23.0746C21.9026 22.3421 22.2812 21.3485 22.2812 20.3125V4.6875C22.2812 4.17452 22.1883 3.66657 22.0077 3.19264C21.8271 2.71871 21.5624 2.28809 21.2287 1.92536C20.895 1.56264 20.4988 1.2749 20.0628 1.0786C19.6268 0.882288 19.1594 0.78125 18.6875 0.78125H4.3125ZM2.15625 4.6875C2.15625 4.0659 2.38343 3.46976 2.7878 3.03022C3.19218 2.59068 3.74063 2.34375 4.3125 2.34375H18.6875C19.2594 2.34375 19.8078 2.59068 20.2122 3.03022C20.6166 3.46976 20.8438 4.0659 20.8438 4.6875V20.3125C20.8438 20.9341 20.6166 21.5302 20.2122 21.9698C19.8078 22.4093 19.2594 22.6562 18.6875 22.6562H4.3125C3.74063 22.6562 3.19218 22.4093 2.7878 21.9698C2.38343 21.5302 2.15625 20.9341 2.15625 20.3125V4.6875Z" fill="#CCCCCC"/>
</g>
<defs>
<clipPath id="clip0_2_135">
<rect width="23" height="25" fill="white"/>
</clipPath>
</defs>
</svg>
